<svg width="50" height="50" viewBox="0 0 50 50" fill="none" xmlns="http://www.w3.org/2000/svg">
<path d="M24.9975 14.9858C19.4556 14.9858 14.9829 19.4585 14.9829 25.0005C14.9829 30.5425 19.4556 35.0151 24.9975 35.0151C30.5395 35.0151 35.0122 30.5425 35.0122 25.0005C35.0122 19.4585 30.5395 14.9858 24.9975 14.9858ZM24.9975 31.5093C21.4136 31.5093 18.4888 28.5845 18.4888 25.0005C18.4888 21.4165 21.4136 18.4917 24.9975 18.4917C28.5815 18.4917 31.5063 21.4165 31.5063 25.0005C31.5063 28.5845 28.5815 31.5093 24.9975 31.5093ZM35.4224 12.2417C34.1284 12.2417 33.0835 13.2866 33.0835 14.5806C33.0835 15.8745 34.1284 16.9194 35.4224 16.9194C36.7163 16.9194 37.7612 15.8794 37.7612 14.5806C37.7616 14.2733 37.7014 13.969 37.584 13.6851C37.4666 13.4011 37.2943 13.1431 37.077 12.9259C36.8598 12.7086 36.6018 12.5363 36.3179 12.4189C36.0339 12.3015 35.7296 12.2413 35.4224 12.2417ZM44.519 25.0005C44.519 22.3052 44.5434 19.6343 44.3921 16.9438C44.2407 13.8188 43.5278 11.0454 41.2427 8.76024C38.9526 6.4702 36.1841 5.76219 33.0591 5.61083C30.3638 5.45946 27.6929 5.48387 25.0024 5.48387C22.3071 5.48387 19.6362 5.45946 16.9458 5.61083C13.8208 5.76219 11.0474 6.47508 8.76219 8.76024C6.47216 11.0503 5.76415 13.8188 5.61278 16.9438C5.46141 19.6391 5.48583 22.31 5.48583 25.0005C5.48583 27.6909 5.46141 30.3667 5.61278 33.0571C5.76415 36.1821 6.47704 38.9556 8.76219 41.2407C11.0522 43.5307 13.8208 44.2388 16.9458 44.3901C19.6411 44.5415 22.312 44.5171 25.0024 44.5171C27.6977 44.5171 30.3686 44.5415 33.0591 44.3901C36.1841 44.2388 38.9575 43.5259 41.2427 41.2407C43.5327 38.9507 44.2407 36.1821 44.3921 33.0571C44.5483 30.3667 44.519 27.6958 44.519 25.0005ZM40.2222 36.5141C39.8657 37.4028 39.436 38.0669 38.7475 38.7505C38.0591 39.4389 37.3999 39.8686 36.5112 40.2251C33.9429 41.2456 27.8442 41.0161 24.9975 41.0161C22.1509 41.0161 16.0474 41.2456 13.479 40.23C12.5903 39.8735 11.9263 39.4438 11.2427 38.7554C10.5542 38.0669 10.1245 37.4077 9.76805 36.519C8.75243 33.9458 8.98192 27.8472 8.98192 25.0005C8.98192 22.1538 8.75243 16.0503 9.76805 13.4819C10.1245 12.5932 10.5542 11.9292 11.2427 11.2456C11.9311 10.562 12.5903 10.1274 13.479 9.77098C16.0474 8.75536 22.1509 8.98485 24.9975 8.98485C27.8442 8.98485 33.9477 8.75536 36.5161 9.77098C37.4048 10.1274 38.0688 10.5571 38.7524 11.2456C39.4409 11.9341 39.8706 12.5932 40.227 13.4819C41.2427 16.0503 41.0132 22.1538 41.0132 25.0005C41.0132 27.8472 41.2427 33.9458 40.2222 36.5141Z" fill="white"/>
</svg>
